<svg width="112" height="112" viewBox="0 0 112 112" fill="none" xmlns="http://www.w3.org/2000/svg">
    <g opacity="0.3">
        <path d="M55.3647 0C127.27 4.40649 127.959 97.5225 67.2527 110.049C59.0341 111.857 50.5117 111.767 42.333 109.787C34.1542 107.807 26.5346 103.988 20.053 98.6216C13.5717 93.2548 8.3989 86.4811 4.92806 78.8151C1.45743 71.1492 -0.220256 62.793 0.0231654 54.3815C0.197523 42.4889 5.04784 28.1146 13.8359 19.0571C26.9512 5.50245 36.5703 1.28617 55.3647 0ZM55.4802 109.555C62.7421 109.635 69.9435 108.227 76.6411 105.419C83.3385 102.611 89.3903 98.4611 94.4235 93.2258C99.457 87.9906 103.365 81.7803 105.908 74.9776C108.451 68.1749 109.575 60.9237 109.21 53.6704C108.797 43.1306 105.294 32.945 99.1371 24.3806C92.9802 15.8163 84.4406 9.25137 74.5812 5.50313C64.7218 1.75467 53.978 0.988401 43.6864 3.29921C33.3948 5.61024 24.01 10.8962 16.6997 18.5C9.38934 26.1036 4.47631 35.689 2.57174 46.0635C0.667391 56.438 1.85551 67.1435 5.98869 76.8478C10.1216 86.5522 17.0171 94.827 25.817 100.643C34.6166 106.458 44.9323 109.557 55.4802 109.555Z"
              fill="white" fill-opacity="0.9"/>
        <path d="M93.8888 33.103C99.6186 43.2952 101.205 55.3019 98.3184 66.6324C95.4319 77.963 88.2946 87.7474 78.3868 93.9561C48.6033 112.452 10.8787 90.1564 9.97974 59.5193C8.49204 8.44613 70.9347 -6.71166 93.8888 33.103ZM63.7657 97.9029C86.6473 92.1649 98.2296 73.9004 98.3224 55.1264C98.4583 27.2745 69.6531 5.62244 43.2571 13.7697C31.9058 17.275 21.4896 23.7217 15.7154 36.366C-1.23122 73.4634 33.5339 105.482 63.7657 97.9029Z"
              fill="white" fill-opacity="0.9"/>
        <path d="M63.6725 83.352C60.4637 83.023 57.316 82.2488 54.3206 81.0514C53.6866 80.7412 54.0263 80.9359 52.1785 85.2926C51.2728 87.4188 50.4168 90.0093 48.6257 89.2824C40.3811 85.9357 40.9947 87.5094 44.9031 77.6231C45.0842 77.1702 44.3596 77.0706 43.9973 76.9076C43.524 76.6811 43.6192 76.5996 41.8099 80.6143C39.8852 84.8872 40.0663 85.4647 38.7507 85.1929C37.9854 85.0367 33.5245 83.0078 32.8248 82.6568C31.7311 82.1111 31.6926 81.8303 31.9938 80.7547C32.6946 78.3866 33.6094 76.0869 34.7269 73.8846C35.1119 73.1124 35.4062 73.5857 26.2219 69.7023C22.7461 68.2327 23.4842 67.5149 26.8219 60.4183C27.5216 58.9306 27.9156 59.3223 33.323 61.435C37.8518 63.2035 33.6264 63.7968 39.4232 51.0483C40.0188 49.7372 43.5263 41.599 45.99 36.1215C46.2345 35.5757 46.6851 35.9494 40.3064 32.9785C39.0541 32.3943 38.907 31.9958 39.2625 30.4877C39.9101 28.197 40.8702 26.0062 42.1156 23.9776C42.693 22.9337 42.8877 22.5986 48.3472 24.6773C53.9334 26.8058 53.5756 27.4874 53.9764 26.3778C57.0877 17.7596 56.6326 18.4864 61.2519 20.2504C62.575 20.6786 63.8559 21.2275 65.0787 21.8898C65.7761 22.4401 65.6131 22.0528 62.3999 30.6349C62.1962 31.1828 63.9261 31.7263 64.0394 31.133C64.5176 29.3546 65.1713 27.6282 65.9913 25.9793C67.1099 23.2416 67.6329 23.0129 68.67 23.1805C70.9147 23.6628 73.0362 24.6023 74.9016 25.9408C75.5538 26.6699 75.1756 27.9968 74.7861 29.0838C72.5353 35.3719 72.4787 34.6655 73.3165 34.9983C88.8457 41.171 84.5003 55.5227 76.5297 58.6159C75.7666 58.9125 74.9243 58.917 75.3975 59.4424C79.2651 63.6654 80.8094 67.3677 78.5563 73.0672C74.9129 82.2945 68.3304 82.9353 63.6725 83.352ZM73.9053 77.691C79.7927 71.7063 78.9481 63.1288 73.7241 59.5873C72.7187 58.908 73.0901 58.2083 73.62 58.0679C74.9922 57.9157 76.3089 57.44 77.4615 56.6798C78.6141 55.9197 79.5699 54.8968 80.2501 53.6953C82.7273 49.3636 83.0557 43.6868 79.453 40.0841C77.2038 38.2226 74.6478 36.7666 71.899 35.7818C70.8665 35.3018 71.0861 34.7832 71.5005 33.771C75.008 25.2049 75.6398 27.2043 68.7244 24.5323C67.9862 24.2493 68.2239 24.2493 65.749 29.9669C64.6009 32.623 64.5421 33.2842 63.745 32.854C60.3054 31.004 59.9544 33.3068 63.6612 23.3435C63.9986 22.4378 64.4673 22.7933 58.7 20.7621C57.7942 20.4451 58.1542 19.9334 55.72 25.6827C54.7373 28.0059 54.7848 29.0339 53.1341 28.3229C42.1314 23.5836 43.2704 23.8417 42.8923 24.786C39.9101 32.229 39.4029 31.2462 41.7329 32.2358C48.4446 35.0889 48.1955 34.5002 47.1674 36.7645C36.2554 60.5564 37.4917 64.2972 35.6191 63.5975C25.9773 60.0107 28.21 60.244 27.2114 62.5332C26.4778 64.2179 25.8664 65.957 25.1893 67.6643C25.0059 68.1308 24.2066 67.6077 35.2024 72.218C36.7286 72.8566 36.2169 73.1781 34.788 76.7468C32.8158 81.665 32.7388 81.4476 33.7555 81.8688C41.5201 85.091 37.5778 85.1635 42.9376 75.6214C43.164 75.2047 43.3904 75.1119 45.9492 76.3007C46.5991 76.6019 46.3364 77.3899 45.9492 78.3568C42.7066 86.4497 42.8334 85.5801 43.7618 85.9696C49.3684 88.3223 49.1556 88.3518 49.5518 87.4732C53.2541 79.2625 52.2691 80.9676 52.8035 79.9192C53.9674 77.5393 64.7889 86.9433 73.9053 77.6956V77.691Z"
              fill="white" fill-opacity="0.9"/>
        <path d="M66.9132 66.2875C67.0785 69.4214 63.1679 72.9154 58.9765 72.0979C54.7474 71.2635 50.6368 69.9119 46.7376 68.0741C45.748 67.6099 45.5714 67.2363 45.8794 66.1562C46.5079 63.4917 47.411 60.8994 48.574 58.421C49.7243 56.2336 50.3357 53.7519 51.7215 54.13C54.2669 54.8345 56.7495 55.7486 59.1441 56.8631C63.7703 58.9939 66.6415 61.1315 66.9132 66.2875ZM59.8642 70.9725C60.7724 70.8928 61.663 70.6736 62.5045 70.3226C63.1611 70.1376 63.7623 69.7937 64.2548 69.3213C64.7471 68.8492 65.1157 68.263 65.3281 67.6144C67.6288 60.7058 59.1985 58.2421 52.4212 55.6449C51.5947 55.3279 51.4407 55.8894 51.0422 56.7386C49.5871 59.8702 48.3102 63.0818 47.2176 66.3577C47.1202 66.6475 47.1723 66.7177 47.4191 66.8106C55.5007 70.0668 53.5171 69.7407 59.8642 70.9725Z"
              fill="white" fill-opacity="0.9"/>
        <path d="M65.1763 51.5397C63.1383 51.7979 59.1643 50.1154 55.5504 48.7568C53.5237 47.996 53.7389 47.2804 53.9381 46.5717C54.7947 43.5077 56.0053 40.5538 57.5453 37.77C57.9982 36.9231 58.2948 36.8303 59.2889 37.0907C61.1325 37.6663 62.9055 38.448 64.5739 39.4207C68.0792 41.1236 70.2553 42.5909 70.801 44.776C71.0822 45.6118 71.145 46.5055 70.9831 47.3721C70.8211 48.2389 70.4403 49.0498 69.8764 49.7278C69.3128 50.4057 68.5848 50.9281 67.7622 51.2454C66.9395 51.5624 66.0492 51.6638 65.1763 51.5397ZM69.8568 46.7188C69.9211 45.9952 69.8051 45.2669 69.5189 44.5989C69.2329 43.9312 68.7857 43.3447 68.2173 42.892C66.7684 41.7526 65.1602 40.8319 63.444 40.1589C58.5235 38.2229 58.8586 37.8153 58.4261 38.9362C55.256 47.1876 54.7488 46.9408 55.693 47.337C59.2436 48.8179 66.6957 52.2394 68.763 49.2504C69.3672 48.5315 69.7474 47.6515 69.8568 46.7188Z"
              fill="white" fill-opacity="0.9"/>
    </g>
</svg>
