<svg width="134" height="60" viewBox="0 0 134 60" fill="none" xmlns="http://www.w3.org/2000/svg">
<path d="M133.791 2.00928L133.262 0.957209C133.063 0.562684 132.547 0.32327 132.119 0.434546C118.054 4.0426 116.945 20.0158 99.3494 32.9003C92.9965 37.5537 86.7887 38.7035 83.7505 38.9767C83.1401 43.0062 81.0259 47.1201 77.2998 49.0455C76.794 49.3186 76.2545 49.5176 75.7217 49.7064C76.2275 49.4468 76.7232 49.177 77.175 48.8398C79.441 47.2516 80.8438 44.6788 81.4406 42.0182C81.6565 41.0505 81.8048 40.0456 81.8149 39.0576V23.1383C81.8149 20.0125 73.1421 17.4767 62.4495 17.4767C51.7568 17.4767 43.084 20.0125 43.084 23.1383V38.0831C43.1211 47.0661 49.1637 59.7854 69.4632 59.7854C104.482 59.7854 119.949 17.6487 123.27 12.3782C127.179 6.17709 131.397 4.4641 133.454 3.20634C133.862 2.95681 134.01 2.43415 133.795 2.00591L133.791 2.00928ZM62.4461 27.1072C52.8763 27.1072 45.1207 25.3335 45.1207 23.1417C45.1207 20.9499 52.8797 19.1762 62.4461 19.1762C72.0125 19.1762 79.7715 20.9499 79.7715 23.1417C79.7715 25.3335 72.0125 27.1072 62.4461 27.1072Z" fill="#E51C89"/>
<path d="M78.7807 36.8454V37.422C78.7807 40.7839 77.1284 50.2087 62.1094 50.0199L55.9791 49.6287C55.4632 49.595 55.0248 49.9997 55.0181 50.5156L54.9979 52.1679C54.9911 52.876 54.2021 53.3009 53.6052 52.9131C51.0998 51.2878 46.0553 47.1705 46.1902 40.4265V28.203C46.1902 27.623 46.7836 27.2318 47.3164 27.4611C49.3194 28.321 54.084 29.8788 62.3387 29.8788C71.2206 29.8788 78.7773 25.2019 78.7773 36.2688C78.7773 36.461 78.7773 36.6532 78.7773 36.8454H78.7807ZM71.0183 38.4539C70.9947 36.9095 69.1873 35.9653 65.8052 36.2621C62.8985 36.515 57.6415 36.1845 55.7397 36.0496C55.3553 36.0227 55.0316 36.3261 55.0316 36.7072V41.9271C55.0316 42.2272 55.2339 42.4935 55.5273 42.5677C56.3939 42.7869 58.4441 43.1781 62.0589 43.1814C67.8385 43.1882 71.079 42.1901 71.0183 38.4573V38.4539Z" fill="white"/>
<path d="M17.5566 25.1522V25.6337C17.3019 29.9194 13.7206 33.3415 9.37123 33.3415H5.08553V37.7546H0V16.9668H10.1034C14.3891 16.9668 17.3298 20.6118 17.5526 24.6747V25.1562L17.5566 25.1522ZM12.4074 25.1522C12.4074 23.457 11.0624 22.0842 9.37123 22.0483H5.08553V28.252H9.30755C11.0346 28.252 12.4074 26.8752 12.4074 25.1482V25.1522Z" fill="#E41C88"/>
<path d="M25.2967 16.9668V37.7546H20.3066V16.9668H25.2967Z" fill="#E41C88"/>
<path d="M17.5566 47.2572V47.7387C17.3019 52.0243 13.7206 55.4465 9.37123 55.4465H5.08553V59.8596H0V39.0718H10.1034C14.3891 39.0718 17.3298 42.7168 17.5526 46.7796V47.2611L17.5566 47.2572ZM12.4074 47.2572C12.4074 45.562 11.0624 44.1891 9.37123 44.1533H5.08553V50.357H9.30755C11.0346 50.357 12.4074 48.9802 12.4074 47.2532V47.2572Z" fill="#E41C88"/>
<path d="M25.4236 43.5483V47.257H33.8358V51.7018H25.4236V55.4105H36.0722V59.8554H20.4336V39.0676H36.0722V43.5443H25.4236V43.5483Z" fill="#E41C88"/>
</svg>
