<svg width="134" height="41" viewBox="0 0 134 41" fill="none" xmlns="http://www.w3.org/2000/svg">
<path d="M93.0435 29.5461H86.3651V40.432H81.9128V29.5461H75.2344V25.5867H93.0468V29.5461H93.0435Z" fill="white"/>
<path d="M106.995 37.4616H97.4608L96.2074 40.432H91.0957L97.3629 25.5867H107.093L113.36 40.432H108.249L106.995 37.4616ZM105.464 33.8319L102.23 26.171L98.9949 33.8319H105.464Z" fill="white"/>
<path d="M133.997 31.0314C133.997 34.0377 131.559 36.476 128.552 36.476H119.152V40.4354H114.699V25.5901H128.555C131.562 25.5901 134 28.0284 134 31.0347L133.997 31.0314ZM129.545 31.0314C129.545 30.1207 128.807 29.383 127.896 29.383H119.155V32.6831H127.896C128.807 32.6831 129.545 31.9454 129.545 31.0347V31.0314Z" fill="white"/>
<path d="M24.7585 0.407227C38.6736 0.407227 52.2197 4.89869 63.3766 13.2157C64.1012 13.7543 64.9793 14.0481 65.8802 14.0481C68.1945 14.0481 70.0713 12.1712 70.0713 9.85692V0.407227H110.984V17.149H75.0296C63.8368 17.149 64.7932 24.9242 64.7932 33.238V40.4354H46.2627H46.1941V33.238C46.1941 24.9242 47.1505 17.149 35.9578 17.149H0V0.407227H24.7585Z" fill="white"/>
</svg>
