<svg width="135" height="61" viewBox="0 0 135 61" fill="none" xmlns="http://www.w3.org/2000/svg">
<path d="M88.8008 50.8463H89.2915L91.1763 41.3154H90.6855L88.8008 50.8463Z" fill="#F7931A"/>
<path d="M83.8809 50.8463H85.0315L86.9203 41.3154H85.7656L83.8809 50.8463Z" fill="#F7931A"/>
<path d="M78.9609 50.8463H80.7755L82.6603 41.3154H80.8457L78.9609 50.8463Z" fill="#F7931A"/>
<path d="M74.041 50.8463H76.5155L78.4002 41.3154H75.9257L74.041 50.8463Z" fill="#F7931A"/>
<path d="M69.8828 41.3154H68.6456H65.6226H63.7255H61.3665H61.1686H52.9904L51.1016 50.8463H59.2797H59.4777H61.8408H63.7379H66.7609H67.9981H72.2542L74.143 41.3154H69.8828Z" fill="#F7931A"/>
<path d="M22.4322 25.0416L18.6875 28.7863L22.9931 25.3427L22.4322 25.0416Z" fill="#E51C89"/>
<path d="M37.0305 36.6469L35.4386 39.3028L32.4609 38.7873L33.8673 36.3252L37.0305 36.6469Z" fill="#E51C89"/>
<path d="M68.6666 8.51221L64.9219 9.32878V12.2569L68.6666 8.51221Z" fill="#E51C89"/>
<path d="M0 3.74072L5.60056 22.2498L32.593 15.9688L18.6864 28.7865L10.0422 60.6536H28.209H31.0423L44.3838 38.936L34.2962 41.0929L29.669 42.1982L33.2858 40.3877L31.2526 30.1887L48.6523 13.0654L54.9952 11.4941L57.2717 9.92691L51.2546 15.2347L64.922 12.257V3.74072H0Z" fill="#E51C89"/>
<path d="M0 3.74058L3.74058 0L4.87471 3.74058H0Z" fill="#E51C89"/>
<path d="M51.2559 15.2345L54.9964 11.4939L56.7368 11.1145L51.2559 15.2345Z" fill="#E51C89"/>
<path d="M3.74023 0L9.3408 18.5091L36.3332 12.228L22.4308 25.0417L13.7866 56.9088H31.9492H34.7866L48.1282 35.1953L38.0365 37.3481L33.4092 38.4575L37.0302 36.647L34.9929 26.4439L50.7594 10.999L58.1952 9.08957L54.9949 11.4939L68.6663 8.51219V0H3.74023Z" fill="url(#paint0_linear_378_959)"/>
<path d="M31.043 60.6534L34.7877 56.9087H33.3442L31.043 60.6534Z" fill="#E51C89"/>
<path d="M112.671 28.4934L96.1253 8.09964L82.359 6.66032L75.315 2.73828L71.6816 5.54269L79.1422 9.55546L86.4873 28.4027L103.524 32.6794L102.732 27.3593L104.147 30.2503L113.051 31.7515L115.665 32.1928L117.76 29.3884L112.667 28.4976L112.671 28.4934ZM88.1163 12.7475L93.7045 11.2505L95.6552 14.9539L88.7266 15.0735L88.1163 12.7434V12.7475ZM96.8141 24.6621L91.9517 19.3461L98.4472 18.5873L102.089 26.0355L96.8099 24.6621H96.8141Z" fill="#E51C89"/>
<path d="M117.768 29.3802L98.9042 5.29121L75.3184 2.73425L82.5191 6.74703L89.6951 25.5943L106.138 29.871L94.8708 16.5336L101.14 15.7747L106.645 27.4378L117.764 29.3802H117.768ZM98.4506 12.1455L91.7654 12.2651L91.1756 9.93497L96.57 8.43792L98.4547 12.1414L98.4506 12.1455Z" fill="url(#paint1_linear_378_959)"/>
<path d="M97.9148 18.0265L93.2422 16.7315L98.055 16.1624L97.9148 18.0265Z" fill="#E51C89"/>
<path d="M98.2168 16.1336L102.345 15.6428L98.8519 17.8946L98.2168 16.1336Z" fill="#E51C89"/>
<path d="M79.9667 5.32837L84.396 7.78635L79.377 7.10174L79.9667 5.32837Z" fill="#E51C89"/>
<path d="M123.757 29.9906L106.741 7.31201L104.035 10.0752L122.491 31.2113L123.757 29.9906Z" fill="#E51C89"/>
<path d="M124.586 17.3708L126.566 14.5953L120.932 10.8341L118.152 11.4486L120.318 15.1562L124.586 17.3708Z" fill="#E51C89"/>
<path d="M124.223 20.7773L127.51 20.8763L133.102 37.2532L121.682 32.762L104.035 10.0752L111.277 5.11804L124.586 17.3708L121.847 17.5853L117.913 14.7685L110.823 12.859L118.771 23.9199L124.664 26.4769L124.223 20.7773Z" fill="#E51C89"/>
<path d="M126.214 18.0017L129.386 18.1006L134.772 34.4734L123.756 29.9905L106.74 7.31193L113.731 2.35474L126.565 14.5951L123.921 14.8178L120.127 11.9969L113.285 10.0957L120.952 21.1525L126.639 23.7053L126.214 18.0017Z" fill="url(#paint2_linear_378_959)"/>
<path d="M124.223 20.7772L126.215 18.0017L126.454 21.2598L124.223 20.7772Z" fill="#E51C89"/>
<path d="M133.103 37.2533L134.773 34.4736L131.193 33.0178L133.103 37.2533Z" fill="#E51C89"/>
<path d="M126.392 20.4431L126.763 25.0003L124.598 20.9751L126.392 20.4431Z" fill="#E51C89"/>
<path d="M120.741 14.7314L118.428 10.7393L122.135 13.4818L120.741 14.7314Z" fill="#E51C89"/>
<path d="M89.2784 33.9993L73.9573 30.5598L80.2589 27.5615L83.5871 24.7571L79.9661 26.5429L77.0009 16.0759L56.5782 16.4553L54.413 15.6428L50.0291 18.4472L56.471 24.2829L34.3203 60.6576L65.7049 43.2827L68.6866 38.9029L66.3606 40.1484L68.2866 30.9145L73.9202 39.7648L97.0854 35.7562L99.8279 32.9518L89.2743 34.0034L89.2784 33.9993ZM68.6578 25.7717L65.8575 20.1134L73.1325 19.338L68.6619 25.7717H68.6578Z" fill="#E51C89"/>
<path d="M77.5094 27.7512L83.5925 24.753L78.3837 10.999L54.4184 15.6345L60.6376 21.4702L41.9883 53.2012L68.692 38.8987L72.0408 28.1059L75.2411 35.3973L99.8374 32.9476L77.5135 27.7512H77.5094ZM72.3955 22.9631L69.69 17.3048L76.7093 16.5295L72.3955 22.9631Z" fill="url(#paint3_linear_378_959)"/>
<path d="M75.3887 27.2523L80.7995 27.1079L80.2593 27.5616L79.088 28.1183L75.3887 27.2523Z" fill="#E51C89"/>
<path d="M57.2559 23.5571L61.9409 19.2556L58.7117 24.7366L57.2559 23.5571Z" fill="#E51C89"/>
<path d="M106.139 29.871L103.532 32.6795L102.992 29.0544L106.139 29.871Z" fill="#E51C89"/>
<path d="M92.7641 49.1637L94.0055 42.7878L95.8737 41.332H100.971L102.481 42.9776L102.212 44.322H100.179L100.328 43.5467L99.7586 42.9074H96.7686L95.8696 43.6003L94.8963 48.574L95.5231 49.2668H98.5131L99.3338 48.6276L99.4988 47.8523H101.532L101.219 49.4153L99.3792 50.8423H94.2818L92.7559 49.1555L92.7641 49.1637Z" fill="#F7931A"/>
<path d="M102.258 49.1637L103.499 42.7878L105.367 41.332H110.749L112.275 43.0023L111.017 49.4442L109.195 50.8423H103.784L102.258 49.1555V49.1637ZM108.254 49.271L109.153 48.5781L110.127 43.6044L109.5 42.9116H106.287L105.388 43.6044L104.402 48.5781L105.029 49.271H108.258H108.254Z" fill="#F7931A"/>
<path d="M121.395 45.7902L120.257 46.6728L121.077 47.6914L120.463 50.8464H118.43L118.97 48.0337L118.31 47.2048H114.99L114.289 50.8464H112.256L114.095 41.332H120.525L121.943 42.9074L121.391 45.7902H121.395ZM115.295 45.683H118.883L119.498 45.2087L119.857 43.3611L119.424 42.8868H115.836L115.295 45.6871V45.683Z" fill="#F7931A"/>
<path d="M123.888 41.332H131.44L131.139 42.895H125.621L125.159 45.2994H130.244L129.943 46.8336H124.858L124.379 49.2792H129.897L129.596 50.8422H122.045L123.884 41.3279L123.888 41.332Z" fill="#F7931A"/>
<defs>
<linearGradient id="paint0_linear_378_959" x1="36.2053" y1="56.9088" x2="36.2053" y2="-7.69149" gradientUnits="userSpaceOnUse">
<stop stop-color="#E85EAA"/>
<stop offset="1" stop-color="white"/>
</linearGradient>
<linearGradient id="paint1_linear_378_959" x1="94.4708" y1="27.8131" x2="98.4547" y2="5.21285" gradientUnits="userSpaceOnUse">
<stop stop-color="#FF6EBD"/>
<stop offset="0.73" stop-color="white"/>
</linearGradient>
<linearGradient id="paint2_linear_378_959" x1="120.534" y1="34.2142" x2="121.083" y2="2.47143" gradientUnits="userSpaceOnUse">
<stop stop-color="#FF3398"/>
<stop offset="0.05" stop-color="#FF45A1"/>
<stop offset="0.24" stop-color="#FF7DBD"/>
<stop offset="0.42" stop-color="#FFABD4"/>
<stop offset="0.59" stop-color="#FFCFE7"/>
<stop offset="0.75" stop-color="#FFE9F4"/>
<stop offset="0.89" stop-color="#FFF9FC"/>
<stop offset="1" stop-color="white"/>
</linearGradient>
<linearGradient id="paint3_linear_378_959" x1="70.9108" y1="53.2012" x2="70.9108" y2="10.999" gradientUnits="userSpaceOnUse">
<stop stop-color="#FF3398"/>
<stop offset="1" stop-color="white"/>
</linearGradient>
</defs>
</svg>
