<svg width="1317" height="342" viewBox="0 0 1317 342" fill="none" xmlns="http://www.w3.org/2000/svg">
<g clip-path="url(#clip0_450_44)">
<path d="M1333 500.5C1333 403.298 1261.99 310.077 1135.59 241.345C1009.19 172.613 837.756 134 659 134C480.244 134 308.81 172.613 182.41 241.345C56.0106 310.077 -15 403.298 -15 500.5L659 500.5H1333Z" fill="url(#paint0_linear_450_44)"/>
<path d="M688.939 173.423L684.772 176.634L683.644 182.576L687.033 186.295H695.982L696.892 187.311L696.187 190.859L694.841 191.894H687.601L686.69 190.892L687.06 189.098H682.364L681.758 192.065L685.167 195.811H696.424L700.592 192.58L701.871 186.137L698.455 182.378H689.5L688.517 181.29L689.17 177.874L690.588 176.786H697.453L698.396 178.112L698.046 180.143H702.735L703.302 177.155L699.873 173.423H688.939Z" fill="url(#paint1_linear_450_44)"/>
<path d="M720.488 173.423L713.009 182.378H712.937L708.96 173.423H703.85L710.042 186.665L708.281 195.811H713.069L714.829 186.665L726.152 173.423H720.488Z" fill="url(#paint2_linear_450_44)"/>
<path d="M729.614 173.423L725.447 176.634L724.319 182.576L727.708 186.295H736.664L737.574 187.311L736.862 190.859L735.516 191.894H728.276L727.372 190.892L727.741 189.098H723.04L722.439 192.065L725.849 195.811H737.099L741.267 192.58L742.546 186.137L739.13 182.378H730.175L729.192 181.29L729.845 177.874L731.269 176.786H738.134L739.071 178.112L738.728 180.143H743.417L743.977 177.155L740.555 173.423H729.614Z" fill="url(#paint3_linear_450_44)"/>
<path d="M765.56 173.423H744.801L744.049 177.34H752.088L748.513 195.811H753.235L756.809 177.34H764.775L765.56 173.423Z" fill="url(#paint4_linear_450_44)"/>
<path d="M770.955 177.34H783.808L784.56 173.423H766.932L762.606 195.811H780.214L780.966 191.894H768.073L769.168 186.295H781.064L781.717 182.939H769.88L770.955 177.34Z" fill="url(#paint5_linear_450_44)"/>
<path d="M806.163 173.423L796 187.977H795.928L791.364 173.423H787.375L783.049 195.811H787.639L790.243 182.378H790.54L793.989 192.455H796.825L804.191 182.378H804.474L801.876 195.811H806.42L810.746 173.423H806.163Z" fill="url(#paint6_linear_450_44)"/>
<path d="M831.433 180.143L832 177.155L828.571 173.423H817.631L813.47 176.634L812.335 182.576L815.725 186.295H824.68L825.59 187.311L824.878 190.859L823.533 191.894H816.292L815.389 190.892L815.758 189.098H811.056L810.456 192.065L813.865 195.811H825.116L829.283 192.58L830.563 186.137L827.147 182.378H818.191L817.209 181.29L817.862 177.874L819.286 176.786H826.151L827.094 178.112L826.744 180.143H831.433Z" fill="url(#paint7_linear_450_44)"/>
<path d="M672.657 195.811H673.811L678.243 173.423H677.082L672.657 195.811Z" fill="url(#paint8_linear_450_44)"/>
<path d="M661.156 195.811H663.867L668.291 173.423H665.588L661.156 195.811Z" fill="url(#paint9_linear_450_44)"/>
<path d="M649.655 195.811H653.915L658.347 173.423H654.087L649.655 195.811Z" fill="url(#paint10_linear_450_44)"/>
<path d="M638.161 195.811H643.971L648.402 173.423H642.593L638.161 195.811Z" fill="url(#paint11_linear_450_44)"/>
<path d="M628.566 173.423H625.658H618.563H614.105H608.559H608.09H601.931L584.449 195.811H603.659H604.127H609.673H614.131H621.227H624.135H634.139L638.57 173.423H628.566Z" fill="url(#paint12_linear_450_44)"/>
<path d="M539.29 134.502L530.4 143.392L540.622 135.215L539.29 134.502Z" fill="#E51C89"/>
<path d="M573.977 162.074L570.198 168.385L563.129 167.158L566.466 161.302L573.977 162.074Z" fill="#E51C89"/>
<path d="M486 83.8894L499.308 127.868L563.439 112.938L530.401 143.392L509.865 219.11H553.02H559.759L591.459 167.508L567.488 172.632L556.495 175.263L565.088 170.963L560.254 146.722L601.595 106.047L616.67 102.308L622.077 98.5819L607.781 111.204L640.258 104.121V83.8894H486Z" fill="#E51C89"/>
<path d="M494.89 75L508.197 118.979L572.329 104.049L539.29 134.502L518.755 210.22H561.91H568.649L600.349 158.618L576.378 163.742L565.385 166.373L573.977 162.074L569.144 137.832L606.607 101.134L624.267 96.6036L616.67 102.308L649.148 95.2319V75H494.89Z" fill="url(#paint13_linear_450_44)"/>
<path d="M559.76 219.11L568.649 210.22H565.22L559.76 219.11Z" fill="#E51C89"/>
<path d="M753.703 142.699L714.394 94.2491L681.685 90.8266L664.955 81.5085L656.329 88.1756L674.055 97.7046L691.504 142.481L731.988 152.643L730.102 139.995L733.465 146.867L754.613 150.428L760.832 151.476L765.811 144.809L753.703 142.699ZM695.362 105.282L708.643 101.727L713.279 110.531L696.819 110.814L695.369 105.282H695.362ZM716.022 133.592L704.469 120.957L719.907 119.157L728.565 136.856L716.029 133.592H716.022Z" fill="#E51C89"/>
<path d="M765.811 144.809L720.995 87.5757L664.955 81.5022L682.068 91.0312L699.121 135.808L738.194 145.97L711.426 114.283L726.323 112.483L739.407 140.2L765.818 144.809H765.811ZM719.92 103.864L704.034 104.148L702.629 98.6149L715.443 95.0605L719.92 103.864Z" fill="url(#paint14_linear_450_44)"/>
<path d="M780.042 146.26L739.612 92.3765L733.188 98.9314L777.042 149.162L780.042 146.26Z" fill="#E51C89"/>
<path d="M781.15 124.36L788.965 124.597L802.246 163.511L775.116 152.841L733.188 98.9313L750.387 87.1602L782.014 116.268L775.505 116.783L766.161 110.089L749.312 105.552L768.199 131.838L782.199 137.911L781.15 124.36Z" fill="#E51C89"/>
<path d="M802.245 163.511L806.222 156.91L797.715 153.448L802.245 163.511Z" fill="#E51C89"/>
<path d="M698.125 155.783L661.724 147.606L676.693 140.484L684.607 133.816L676.008 138.057L668.958 113.182L620.436 114.079L615.285 112.147L604.866 118.814L620.179 132.682L567.548 219.11L642.112 177.828L649.201 167.422L643.668 170.383L648.251 148.443L661.638 169.473L716.682 159.95L723.198 153.283L698.119 155.783H698.125ZM649.135 136.23L642.481 122.784L659.765 120.937L649.142 136.223L649.135 136.23Z" fill="#E51C89"/>
<path d="M670.165 140.938L684.613 133.816L672.236 101.134L615.299 112.14L630.077 126.008L585.769 201.403L649.214 167.415L657.167 141.776L664.771 159.106L723.204 153.283L670.158 140.938H670.165ZM658.011 129.563L651.588 116.117L668.266 114.27L658.011 129.556V129.563Z" fill="url(#paint15_linear_450_44)"/>
<path d="M665.126 139.752L677.979 139.409L676.699 140.484L673.91 141.809L665.126 139.752Z" fill="#E51C89"/>
<path d="M738.187 145.976L731.988 152.643L730.702 144.031L738.187 145.976Z" fill="#E51C89"/>
<path d="M649.148 95.2319L640.259 97.1707V104.121L649.148 95.2319Z" fill="#E51C89"/>
<path d="M486 83.8894L494.889 75L497.58 83.8894H486Z" fill="#E51C89"/>
<path d="M607.78 111.204L616.67 102.308L620.804 101.411L607.78 111.204Z" fill="#E51C89"/>
<path d="M718.641 117.831L707.542 114.752L718.983 113.4L718.641 117.831Z" fill="#E51C89"/>
<path d="M719.366 113.327L729.166 112.167L720.87 117.515L719.366 113.327Z" fill="#E51C89"/>
<path d="M676.001 87.6614L686.519 93.5041L674.603 91.8753L676.001 87.6614Z" fill="#E51C89"/>
<path d="M782.014 116.269L786.722 109.681L773.329 100.745L766.728 102.203L771.871 111.013L782.014 116.269Z" fill="#E51C89"/>
<path d="M781.15 124.36L785.885 117.779L786.459 125.514L781.15 124.36Z" fill="#E51C89"/>
<path d="M786.3 123.568L787.19 134.403L782.04 124.835L786.3 123.568Z" fill="#E51C89"/>
<path d="M622.045 130.974L633.176 120.753L625.494 133.77L622.045 130.974Z" fill="#E51C89"/>
<path d="M785.885 117.779L793.422 118.009L806.222 156.91L780.042 146.26L739.611 92.3766L756.216 80.5989L786.722 109.681L780.438 110.202L771.423 103.508L755.168 98.9843L773.375 125.257L786.887 131.324L785.885 117.779Z" fill="url(#paint16_linear_450_44)"/>
<path d="M772.881 109.997L767.381 100.514L776.198 107.036L772.881 109.997Z" fill="#E51C89"/>
</g>
<defs>
<linearGradient id="paint0_linear_450_44" x1="659" y1="134" x2="659" y2="288.702" gradientUnits="userSpaceOnUse">
<stop stop-color="#E51C89"/>
<stop offset="0.621119" stop-color="#1B1B1B" stop-opacity="0"/>
</linearGradient>
<linearGradient id="paint1_linear_450_44" x1="584.449" y1="184.62" x2="831.994" y2="184.62" gradientUnits="userSpaceOnUse">
<stop stop-color="#4F32D9"/>
<stop offset="0.66" stop-color="#00E5DC"/>
<stop offset="1" stop-color="#CDFF00"/>
</linearGradient>
<linearGradient id="paint2_linear_450_44" x1="584.45" y1="184.62" x2="831.994" y2="184.62" gradientUnits="userSpaceOnUse">
<stop stop-color="#4F32D9"/>
<stop offset="0.66" stop-color="#00E5DC"/>
<stop offset="1" stop-color="#CDFF00"/>
</linearGradient>
<linearGradient id="paint3_linear_450_44" x1="584.45" y1="184.62" x2="831.994" y2="184.62" gradientUnits="userSpaceOnUse">
<stop stop-color="#4F32D9"/>
<stop offset="0.66" stop-color="#00E5DC"/>
<stop offset="1" stop-color="#CDFF00"/>
</linearGradient>
<linearGradient id="paint4_linear_450_44" x1="584.449" y1="184.62" x2="831.993" y2="184.62" gradientUnits="userSpaceOnUse">
<stop stop-color="#4F32D9"/>
<stop offset="0.66" stop-color="#00E5DC"/>
<stop offset="1" stop-color="#CDFF00"/>
</linearGradient>
<linearGradient id="paint5_linear_450_44" x1="584.45" y1="184.62" x2="831.994" y2="184.62" gradientUnits="userSpaceOnUse">
<stop stop-color="#4F32D9"/>
<stop offset="0.66" stop-color="#00E5DC"/>
<stop offset="1" stop-color="#CDFF00"/>
</linearGradient>
<linearGradient id="paint6_linear_450_44" x1="584.449" y1="184.62" x2="831.993" y2="184.62" gradientUnits="userSpaceOnUse">
<stop stop-color="#4F32D9"/>
<stop offset="0.66" stop-color="#00E5DC"/>
<stop offset="1" stop-color="#CDFF00"/>
</linearGradient>
<linearGradient id="paint7_linear_450_44" x1="584.45" y1="184.62" x2="831.994" y2="184.62" gradientUnits="userSpaceOnUse">
<stop stop-color="#4F32D9"/>
<stop offset="0.66" stop-color="#00E5DC"/>
<stop offset="1" stop-color="#CDFF00"/>
</linearGradient>
<linearGradient id="paint8_linear_450_44" x1="584.449" y1="184.62" x2="831.993" y2="184.62" gradientUnits="userSpaceOnUse">
<stop stop-color="#4F32D9"/>
<stop offset="0.66" stop-color="#00E5DC"/>
<stop offset="1" stop-color="#CDFF00"/>
</linearGradient>
<linearGradient id="paint9_linear_450_44" x1="584.449" y1="184.62" x2="831.993" y2="184.62" gradientUnits="userSpaceOnUse">
<stop stop-color="#4F32D9"/>
<stop offset="0.66" stop-color="#00E5DC"/>
<stop offset="1" stop-color="#CDFF00"/>
</linearGradient>
<linearGradient id="paint10_linear_450_44" x1="584.449" y1="184.62" x2="831.993" y2="184.62" gradientUnits="userSpaceOnUse">
<stop stop-color="#4F32D9"/>
<stop offset="0.66" stop-color="#00E5DC"/>
<stop offset="1" stop-color="#CDFF00"/>
</linearGradient>
<linearGradient id="paint11_linear_450_44" x1="584.449" y1="184.62" x2="831.993" y2="184.62" gradientUnits="userSpaceOnUse">
<stop stop-color="#4F32D9"/>
<stop offset="0.66" stop-color="#00E5DC"/>
<stop offset="1" stop-color="#CDFF00"/>
</linearGradient>
<linearGradient id="paint12_linear_450_44" x1="584.449" y1="184.62" x2="831.993" y2="184.62" gradientUnits="userSpaceOnUse">
<stop stop-color="#4F32D9"/>
<stop offset="0.66" stop-color="#00E5DC"/>
<stop offset="1" stop-color="#CDFF00"/>
</linearGradient>
<linearGradient id="paint13_linear_450_44" x1="572.019" y1="210.22" x2="572.019" y2="56.7267" gradientUnits="userSpaceOnUse">
<stop stop-color="#E85EAA"/>
<stop offset="1" stop-color="white"/>
</linearGradient>
<linearGradient id="paint14_linear_450_44" x1="710.457" y1="141.083" x2="719.927" y2="87.3911" gradientUnits="userSpaceOnUse">
<stop stop-color="#FF6EBD"/>
<stop offset="0.73" stop-color="white"/>
</linearGradient>
<linearGradient id="paint15_linear_450_44" x1="654.483" y1="201.403" x2="654.483" y2="101.134" gradientUnits="userSpaceOnUse">
<stop stop-color="#FF3398"/>
<stop offset="1" stop-color="white"/>
</linearGradient>
<linearGradient id="paint16_linear_450_44" x1="772.384" y1="156.299" x2="773.687" y2="80.8697" gradientUnits="userSpaceOnUse">
<stop stop-color="#FF3398"/>
<stop offset="0.05" stop-color="#FF45A1"/>
<stop offset="0.24" stop-color="#FF7DBD"/>
<stop offset="0.42" stop-color="#FFABD4"/>
<stop offset="0.59" stop-color="#FFCFE7"/>
<stop offset="0.75" stop-color="#FFE9F4"/>
<stop offset="0.89" stop-color="#FFF9FC"/>
<stop offset="1" stop-color="white"/>
</linearGradient>
<clipPath id="clip0_450_44">
<rect width="1317" height="342" fill="white"/>
</clipPath>
</defs>
</svg>
