<svg width="1440" height="1096" viewBox="0 0 1440 1096" fill="none" xmlns="http://www.w3.org/2000/svg">
<line x1="13.5" y1="4.09467e-08" x2="13.5" y2="1096" stroke="#161616"/>
<line x1="58.5" y1="4.09467e-08" x2="58.5" y2="1096" stroke="#161616"/>
<line x1="104.5" y1="4.09467e-08" x2="104.5" y2="1096" stroke="#161616"/>
<line x1="149.5" y1="4.09467e-08" x2="149.5" y2="1096" stroke="#161616"/>
<line x1="195.5" y1="4.09467e-08" x2="195.5" y2="1096" stroke="#161616"/>
<line x1="240.5" y1="4.09467e-08" x2="240.5" y2="1096" stroke="#161616"/>
<line x1="286.5" y1="4.09467e-08" x2="286.5" y2="1096" stroke="#161616"/>
<line x1="331.5" y1="4.09467e-08" x2="331.5" y2="1096" stroke="#161616"/>
<line x1="377.5" y1="4.09467e-08" x2="377.5" y2="1096" stroke="#161616"/>
<line x1="422.5" y1="4.09467e-08" x2="422.5" y2="1096" stroke="#161616"/>
<line x1="468.5" y1="4.09467e-08" x2="468.5" y2="1096" stroke="#161616"/>
<line x1="513.5" y1="4.09467e-08" x2="513.5" y2="1096" stroke="#161616"/>
<line x1="559.5" y1="4.09467e-08" x2="559.5" y2="1096" stroke="#161616"/>
<line x1="604.5" y1="4.09467e-08" x2="604.5" y2="1096" stroke="#161616"/>
<line x1="650.5" y1="4.09467e-08" x2="650.5" y2="1096" stroke="#161616"/>
<line x1="695.5" y1="4.09467e-08" x2="695.5" y2="1096" stroke="#161616"/>
<line x1="742.5" y1="4.09467e-08" x2="742.5" y2="1096" stroke="#161616"/>
<line x1="787.5" y1="4.09467e-08" x2="787.5" y2="1096" stroke="#161616"/>
<line x1="833.5" y1="4.09467e-08" x2="833.5" y2="1096" stroke="#161616"/>
<line x1="878.5" y1="4.09467e-08" x2="878.5" y2="1096" stroke="#161616"/>
<line x1="924.5" y1="4.09467e-08" x2="924.5" y2="1096" stroke="#161616"/>
<line x1="969.5" y1="4.09467e-08" x2="969.5" y2="1096" stroke="#161616"/>
<line x1="1015.5" y1="4.09467e-08" x2="1015.5" y2="1096" stroke="#161616"/>
<line x1="1060.5" y1="4.09467e-08" x2="1060.5" y2="1096" stroke="#161616"/>
<line x1="1108.5" y1="4.09467e-08" x2="1108.5" y2="1096" stroke="#161616"/>
<line x1="1153.5" y1="4.09467e-08" x2="1153.5" y2="1096" stroke="#161616"/>
<line x1="1199.5" y1="4.09467e-08" x2="1199.5" y2="1096" stroke="#161616"/>
<line x1="1244.5" y1="4.09467e-08" x2="1244.5" y2="1096" stroke="#161616"/>
<line x1="1290.5" y1="4.09467e-08" x2="1290.5" y2="1096" stroke="#161616"/>
<line x1="1335.5" y1="4.09467e-08" x2="1335.5" y2="1096" stroke="#161616"/>
<line x1="1381.5" y1="4.09467e-08" x2="1381.5" y2="1096" stroke="#161616"/>
<line x1="1426.5" y1="4.09467e-08" x2="1426.5" y2="1096" stroke="#161616"/>
<line x1="-31" y1="1072.5" x2="1470" y2="1072.5" stroke="#161616"/>
<line x1="-31" y1="1027.5" x2="1470" y2="1027.5" stroke="#161616"/>
<line x1="-31" y1="981.5" x2="1470" y2="981.5" stroke="#161616"/>
<line x1="-31" y1="936.5" x2="1470" y2="936.5" stroke="#161616"/>
<line x1="-31" y1="890.5" x2="1470" y2="890.5" stroke="#161616"/>
<line x1="-31" y1="845.5" x2="1470" y2="845.5" stroke="#161616"/>
<line x1="-31" y1="799.5" x2="1470" y2="799.5" stroke="#161616"/>
<line x1="-31" y1="754.5" x2="1470" y2="754.5" stroke="#161616"/>
<line x1="-31" y1="708.5" x2="1470" y2="708.5" stroke="#161616"/>
<line x1="-31" y1="663.5" x2="1470" y2="663.5" stroke="#161616"/>
<line x1="-31" y1="617.5" x2="1470" y2="617.5" stroke="#161616"/>
<line x1="-31" y1="572.5" x2="1470" y2="572.5" stroke="#161616"/>
<line x1="-31" y1="525.5" x2="1470" y2="525.5" stroke="#161616"/>
<line x1="-31" y1="480.5" x2="1470" y2="480.5" stroke="#161616"/>
<line x1="-31" y1="434.5" x2="1470" y2="434.5" stroke="#161616"/>
<line x1="-31" y1="389.5" x2="1470" y2="389.5" stroke="#161616"/>
<line x1="-31" y1="343.5" x2="1470" y2="343.5" stroke="#161616"/>
<line x1="-31" y1="298.5" x2="1470" y2="298.5" stroke="#161616"/>
<line x1="-31" y1="252.5" x2="1470" y2="252.5" stroke="#161616"/>
<line x1="-31" y1="207.5" x2="1470" y2="207.5" stroke="#161616"/>
<line x1="-31" y1="159.5" x2="1470" y2="159.5" stroke="#161616"/>
<line x1="-31" y1="114.5" x2="1470" y2="114.5" stroke="#161616"/>
<line x1="-31" y1="68.5" x2="1470" y2="68.5" stroke="#161616"/>
<line x1="-31" y1="23.5" x2="1470" y2="23.5" stroke="#161616"/>
</svg>
