<svg width="206" height="86" viewBox="0 0 206 86" fill="none" xmlns="http://www.w3.org/2000/svg">
<path d="M120.734 58.301L118.266 60.2034L117.598 63.7229L119.606 65.9261H124.906L125.445 66.5276L125.027 68.6292L124.231 69.2425H119.941L119.402 68.6487L119.621 67.5862H116.84L116.48 69.344L118.5 71.5628H125.168L127.637 69.6487L128.395 65.8323L126.371 63.6057H121.066L120.484 62.9612L120.871 60.9378L121.711 60.2932H125.777L126.336 61.0784L126.129 62.2815H128.906L129.242 60.512L127.211 58.301H120.734Z" fill="url(#paint0_linear_140_441)"/>
<path d="M139.422 58.301L134.992 63.6057H134.949L132.594 58.301H129.566L133.234 66.1448L132.192 71.5628H135.027L136.07 66.1448L142.777 58.301H139.422Z" fill="url(#paint1_linear_140_441)"/>
<path d="M144.828 58.301L142.36 60.2034L141.692 63.7229L143.699 65.9261H149.004L149.543 66.5276L149.121 68.6292L148.324 69.2425H144.035L143.5 68.6487L143.719 67.5862H140.934L140.578 69.344L142.598 71.5628H149.262L151.731 69.6487L152.489 65.8323L150.465 63.6057H145.16L144.578 62.9612L144.965 60.9378L145.809 60.2932H149.875L150.43 61.0784L150.227 62.2815H153.004L153.336 60.512L151.309 58.301H144.828Z" fill="url(#paint2_linear_140_441)"/>
<path d="M166.121 58.301H153.824L153.379 60.6213H158.141L156.024 71.5628H158.821L160.938 60.6213H165.657L166.121 58.301Z" fill="url(#paint3_linear_140_441)"/>
<path d="M169.317 60.6213H176.93L177.375 58.301H166.934L164.371 71.5628H174.801L175.246 69.2425H167.61L168.258 65.9261H175.305L175.692 63.9378H168.68L169.317 60.6213Z" fill="url(#paint4_linear_140_441)"/>
<path d="M190.172 58.301L184.153 66.9222H184.11L181.407 58.301H179.043L176.481 71.5628H179.2L180.743 63.6057H180.918L182.961 69.5745H184.641L189.004 63.6057H189.172L187.633 71.5628H190.325L192.887 58.301H190.172Z" fill="url(#paint5_linear_140_441)"/>
<path d="M205.141 62.2815L205.477 60.512L203.446 58.301H196.965L194.5 60.2034L193.829 63.7229L195.836 65.9261H201.141L201.68 66.5276L201.258 68.6292L200.461 69.2425H196.172L195.637 68.6487L195.856 67.5862H193.071L192.715 69.344L194.735 71.5628H201.399L203.868 69.6487L204.625 65.8323L202.602 63.6057H197.297L196.715 62.9612L197.102 60.9378L197.946 60.2932H202.012L202.571 61.0784L202.364 62.2815H205.141Z" fill="url(#paint6_linear_140_441)"/>
<path d="M111.09 71.5628H111.773L114.398 58.301H113.711L111.09 71.5628Z" fill="url(#paint7_linear_140_441)"/>
<path d="M104.277 71.5628H105.883L108.504 58.301H106.902L104.277 71.5628Z" fill="url(#paint8_linear_140_441)"/>
<path d="M97.4648 71.5628H99.9883L102.613 58.301H100.09L97.4648 71.5628Z" fill="url(#paint9_linear_140_441)"/>
<path d="M90.6562 71.5628H94.0976L96.7226 58.301H93.2812L90.6562 71.5628Z" fill="url(#paint10_linear_140_441)"/>
<path d="M84.9726 58.301H83.2499H79.0468H76.4061H73.121H72.8436H69.1952L58.8396 71.5628H70.2186H70.4959H73.7811H76.4218H80.6249H82.3476H88.2734L90.8984 58.301H84.9726Z" fill="url(#paint11_linear_140_441)"/>
<path d="M32.0895 35.2464L26.8238 40.512L32.8786 35.6682L32.0895 35.2464Z" fill="#E51C89"/>
<path d="M52.6365 51.5784L50.3982 55.3167L46.2106 54.5901L48.1872 51.1213L52.6365 51.5784Z" fill="#E51C89"/>
<path d="M0.522949 5.26566L8.4058 31.3166L46.3943 22.4728L26.8239 40.5119L14.6597 85.3637H40.2223H44.2146L62.992 54.7971L48.7927 57.8323L42.281 59.3909L47.3708 56.844L44.5075 42.4846L68.9959 18.3907L77.9256 16.1759L81.1288 13.9688L72.66 21.4454L91.8984 17.2501V5.26566H0.522949Z" fill="#E51C89"/>
<path d="M5.78859 0L13.6714 26.0509L51.6599 17.2071L32.0895 35.2463L19.9254 80.098H45.488H49.4802L68.2576 49.5315L54.0583 52.5667L47.5466 54.1253L52.6365 51.5784L49.7732 37.2189L71.9647 15.4805L82.4257 12.7969L77.9256 16.1759L97.164 11.9844V0H5.78859Z" fill="url(#paint12_linear_140_441)"/>
<path d="M44.2145 85.3636L49.4802 80.098H47.4489L44.2145 85.3636Z" fill="#E51C89"/>
<path d="M159.098 40.1017L135.813 11.4023L116.438 9.37496L106.527 3.85541L101.418 7.80464L111.918 13.4492L122.254 39.9728L146.235 45.9923L145.117 38.5001L147.11 42.5704L159.637 44.6798L163.321 45.3009L166.27 41.3517L159.098 40.1017ZM124.539 17.9375L132.406 15.832L135.152 21.0469L125.402 21.2149L124.543 17.9375H124.539ZM136.777 34.7071L129.934 27.2227L139.078 26.1563L144.207 36.6407L136.781 34.7071H136.777Z" fill="#E51C89"/>
<path d="M166.27 41.3518L139.723 7.44927L106.527 3.85159L116.664 9.49615L126.766 36.0197L149.91 42.0393L134.055 23.2696L142.879 22.2032L150.629 38.6213L166.274 41.3518H166.27ZM139.086 17.0977L129.676 17.2657L128.844 13.9884L136.434 11.8829L139.086 17.0977Z" fill="url(#paint13_linear_140_441)"/>
<path d="M174.7 42.2111L150.75 10.293L146.945 14.1758L172.922 43.9298L174.7 42.2111Z" fill="#E51C89"/>
<path d="M175.356 29.2383L179.985 29.3789L187.852 52.4298L171.782 46.1095L146.945 14.1758L157.133 7.20306L175.867 24.4453L172.012 24.75L166.477 20.7852L156.496 18.0976L167.684 33.668L175.977 37.2657L175.356 29.2383Z" fill="#E51C89"/>
<path d="M187.852 52.4298L190.207 48.5197L185.168 46.4689L187.852 52.4298Z" fill="#E51C89"/>
<path d="M126.176 47.8518L104.613 43.0081L113.481 38.7893L118.168 34.8401L113.074 37.3518L108.898 22.6173L80.1561 23.1486L77.1053 22.0041L70.9334 25.9533L80.0038 34.1682L48.8279 85.3637L92.996 60.9105L97.1953 54.7464L93.9179 56.5003L96.6328 43.5042L104.563 55.9612L137.168 50.3206L141.028 46.3714L126.172 47.8518H126.176ZM97.1562 36.2697L93.2148 28.3049L103.453 27.2111L97.1601 36.2658L97.1562 36.2697Z" fill="#E51C89"/>
<path d="M109.613 39.0588L118.172 34.84L110.84 15.4806L77.1132 22.0001L85.8671 30.215L59.6209 74.8754L97.2031 54.7425L101.914 39.5549L106.418 49.8206L141.031 46.3713L109.609 39.0588H109.613ZM102.414 32.3205L98.6094 24.3556L108.488 23.2618L102.414 32.3166V32.3205Z" fill="url(#paint14_linear_140_441)"/>
<path d="M106.629 38.3557L114.242 38.1526L113.484 38.7893L111.832 39.5745L106.629 38.3557Z" fill="#E51C89"/>
<path d="M149.906 42.0431L146.235 45.9923L145.473 40.8907L149.906 42.0431Z" fill="#E51C89"/>
<path d="M97.164 11.9843L91.8984 13.1328V17.25L97.164 11.9843Z" fill="#E51C89"/>
<path d="M0.522949 5.26565L5.7886 0L7.38235 5.26565H0.522949Z" fill="#E51C89"/>
<path d="M72.66 21.4455L77.9257 16.1759L80.3749 15.6447L72.66 21.4455Z" fill="#E51C89"/>
<path d="M138.328 25.3712L131.754 23.5469L138.531 22.7462L138.328 25.3712Z" fill="#E51C89"/>
<path d="M138.758 22.7033L144.563 22.0158L139.649 25.1838L138.758 22.7033Z" fill="#E51C89"/>
<path d="M113.07 7.49997L119.301 10.9609L112.242 9.99607L113.07 7.49997Z" fill="#E51C89"/>
<path d="M175.867 24.4455L178.657 20.5431L170.723 15.2502L166.813 16.1134L169.86 21.3322L175.867 24.4455Z" fill="#E51C89"/>
<path d="M175.356 29.2385L178.161 25.34L178.5 29.9221L175.356 29.2385Z" fill="#E51C89"/>
<path d="M178.407 28.7697L178.934 35.1877L175.883 29.5197L178.407 28.7697Z" fill="#E51C89"/>
<path d="M81.1093 33.1564L87.703 27.1017L83.1522 34.8127L81.1093 33.1564Z" fill="#E51C89"/>
<path d="M178.16 25.34L182.625 25.4767L190.207 48.5198L174.7 42.2112L150.75 10.2931L160.586 3.31647L178.657 20.5431L174.934 20.8517L169.594 16.8868L159.965 14.2071L170.75 29.7697L178.754 33.3635L178.16 25.34Z" fill="url(#paint15_linear_140_441)"/>
<path d="M170.457 20.7306L167.199 15.1134L172.422 18.9767L170.457 20.7306Z" fill="#E51C89"/>
<defs>
<linearGradient id="paint0_linear_140_441" x1="58.8396" y1="64.9339" x2="205.473" y2="64.9339" gradientUnits="userSpaceOnUse">
<stop stop-color="#4F32D9"/>
<stop offset="0.66" stop-color="#00E5DC"/>
<stop offset="1" stop-color="#CDFF00"/>
</linearGradient>
<linearGradient id="paint1_linear_140_441" x1="58.8396" y1="64.9339" x2="205.473" y2="64.9339" gradientUnits="userSpaceOnUse">
<stop stop-color="#4F32D9"/>
<stop offset="0.66" stop-color="#00E5DC"/>
<stop offset="1" stop-color="#CDFF00"/>
</linearGradient>
<linearGradient id="paint2_linear_140_441" x1="58.8396" y1="64.9339" x2="205.473" y2="64.9339" gradientUnits="userSpaceOnUse">
<stop stop-color="#4F32D9"/>
<stop offset="0.66" stop-color="#00E5DC"/>
<stop offset="1" stop-color="#CDFF00"/>
</linearGradient>
<linearGradient id="paint3_linear_140_441" x1="58.8396" y1="64.9339" x2="205.473" y2="64.9339" gradientUnits="userSpaceOnUse">
<stop stop-color="#4F32D9"/>
<stop offset="0.66" stop-color="#00E5DC"/>
<stop offset="1" stop-color="#CDFF00"/>
</linearGradient>
<linearGradient id="paint4_linear_140_441" x1="58.8397" y1="64.9339" x2="205.473" y2="64.9339" gradientUnits="userSpaceOnUse">
<stop stop-color="#4F32D9"/>
<stop offset="0.66" stop-color="#00E5DC"/>
<stop offset="1" stop-color="#CDFF00"/>
</linearGradient>
<linearGradient id="paint5_linear_140_441" x1="58.8396" y1="64.9339" x2="205.473" y2="64.9339" gradientUnits="userSpaceOnUse">
<stop stop-color="#4F32D9"/>
<stop offset="0.66" stop-color="#00E5DC"/>
<stop offset="1" stop-color="#CDFF00"/>
</linearGradient>
<linearGradient id="paint6_linear_140_441" x1="58.8397" y1="64.9339" x2="205.473" y2="64.9339" gradientUnits="userSpaceOnUse">
<stop stop-color="#4F32D9"/>
<stop offset="0.66" stop-color="#00E5DC"/>
<stop offset="1" stop-color="#CDFF00"/>
</linearGradient>
<linearGradient id="paint7_linear_140_441" x1="58.8396" y1="64.9339" x2="205.473" y2="64.9339" gradientUnits="userSpaceOnUse">
<stop stop-color="#4F32D9"/>
<stop offset="0.66" stop-color="#00E5DC"/>
<stop offset="1" stop-color="#CDFF00"/>
</linearGradient>
<linearGradient id="paint8_linear_140_441" x1="58.8396" y1="64.9339" x2="205.473" y2="64.9339" gradientUnits="userSpaceOnUse">
<stop stop-color="#4F32D9"/>
<stop offset="0.66" stop-color="#00E5DC"/>
<stop offset="1" stop-color="#CDFF00"/>
</linearGradient>
<linearGradient id="paint9_linear_140_441" x1="58.8396" y1="64.9339" x2="205.473" y2="64.9339" gradientUnits="userSpaceOnUse">
<stop stop-color="#4F32D9"/>
<stop offset="0.66" stop-color="#00E5DC"/>
<stop offset="1" stop-color="#CDFF00"/>
</linearGradient>
<linearGradient id="paint10_linear_140_441" x1="58.8396" y1="64.9339" x2="205.473" y2="64.9339" gradientUnits="userSpaceOnUse">
<stop stop-color="#4F32D9"/>
<stop offset="0.66" stop-color="#00E5DC"/>
<stop offset="1" stop-color="#CDFF00"/>
</linearGradient>
<linearGradient id="paint11_linear_140_441" x1="58.8396" y1="64.9339" x2="205.473" y2="64.9339" gradientUnits="userSpaceOnUse">
<stop stop-color="#4F32D9"/>
<stop offset="0.66" stop-color="#00E5DC"/>
<stop offset="1" stop-color="#CDFF00"/>
</linearGradient>
<linearGradient id="paint12_linear_140_441" x1="51.4763" y1="80.098" x2="51.4763" y2="-10.8243" gradientUnits="userSpaceOnUse">
<stop stop-color="#E85EAA"/>
<stop offset="1" stop-color="white"/>
</linearGradient>
<linearGradient id="paint13_linear_140_441" x1="133.481" y1="39.1447" x2="139.09" y2="7.33989" gradientUnits="userSpaceOnUse">
<stop stop-color="#FF6EBD"/>
<stop offset="0.73" stop-color="white"/>
</linearGradient>
<linearGradient id="paint14_linear_140_441" x1="100.324" y1="74.8754" x2="100.324" y2="15.4806" gradientUnits="userSpaceOnUse">
<stop stop-color="#FF3398"/>
<stop offset="1" stop-color="white"/>
</linearGradient>
<linearGradient id="paint15_linear_140_441" x1="170.163" y1="48.1579" x2="170.935" y2="3.47688" gradientUnits="userSpaceOnUse">
<stop stop-color="#FF3398"/>
<stop offset="0.05" stop-color="#FF45A1"/>
<stop offset="0.24" stop-color="#FF7DBD"/>
<stop offset="0.42" stop-color="#FFABD4"/>
<stop offset="0.59" stop-color="#FFCFE7"/>
<stop offset="0.75" stop-color="#FFE9F4"/>
<stop offset="0.89" stop-color="#FFF9FC"/>
<stop offset="1" stop-color="white"/>
</linearGradient>
</defs>
</svg>
